<svg xmlns="http://www.w3.org/2000/svg" viewBox="0 0 512 512">
  <rect width="512" height="512" fill="#111111" />
  <g transform="translate(256, 256) scale(0.32, -0.32) translate(-480, -480)">
    <path fill="#ffffff" d="M480-80q-83 0-156-31.5T197-197q-54-54-85.5-127T80-480q0-83 31.5-156T197-763q54-54 127-85.5T480-880q83 0 156 31.5T763-763q54 54 85.5 127T880-480q0 83-31.5 156T763-197q-54 54-127 85.5T480-80Zm0-80q134 0 227-93t93-227q0-134-93-227t-227-93q-134 0-227 93t-93 227q0 134 93 227t227 93Zm-36-120 226-90-90-226-226 90 90 226Zm56-120q-17 0-28.5-11.5T460-440q0-17 11.5-28.5T500-480q17 0 28.5 11.5T540-440q0 17-11.5 28.5T500-400Zm-20-80Z"/>
  </g>
</svg>
